<!DOCTYPE svg PUBLIC "-//W3C//DTD SVG 20010904//EN" "http://www.w3.org/TR/2001/REC-SVG-20010904/DTD/svg10.dtd">
<svg version="1.0" xmlns="http://www.w3.org/2000/svg" width="560px" height="560px" viewBox="0 0 5600 5600" preserveAspectRatio="xMidYMid meet">
<g id="layer101" fill="#49648f" stroke="none">
 <path d="M0 2800 l0 -2800 2800 0 2800 0 0 2800 0 2800 -2800 0 -2800 0 0 -2800z"/>
 </g>
<g id="layer102" fill="#fefefe" stroke="none">
 <path d="M823 4385 c-205 -55 -316 -227 -284 -436 28 -177 119 -323 265 -421 161 -110 399 -148 558 -88 110 41 198 149 214 263 7 54 12 55 93 31 86 -25 133 -77 178 -195 l38 -99 238 0 c130 0 237 3 237 6 0 4 -43 131 -95 283 -53 152 -95 287 -93 300 5 42 29 47 89 19 35 -16 75 -47 114 -89 l59 -64 76 -225 75 -225 238 -3 c130 -1 237 1 237 6 0 4 -32 99 -70 210 -39 112 -75 224 -79 249 -20 105 15 157 102 157 66 0 122 -29 176 -90 l41 -47 -47 -33 c-115 -82 -145 -214 -78 -350 83 -170 318 -180 392 -17 22 47 25 69 25 149 0 54 3 94 9 94 36 0 125 -64 214 -154 75 -76 118 -111 171 -139 174 -90 331 -87 434 9 l47 44 13 -45 13 -45 238 0 c132 0 239 3 239 8 0 4 -43 131 -95 282 -52 151 -95 285 -95 296 0 81 126 31 232 -91 19 -22 43 -52 55 -67 l20 -27 53 39 c29 22 55 41 57 44 10 10 -126 173 -206 248 -150 141 -301 216 -457 226 -104 6 -180 -15 -229 -64 -19 -19 -35 -40 -35 -47 0 -7 -4 -18 -9 -26 -7 -11 -18 -7 -53 23 -23 21 -75 53 -115 73 -181 90 -359 34 -423 -133 -26 -68 -37 -196 -22 -261 5 -24 8 -43 6 -43 -2 0 -30 7 -62 16 -55 15 -58 18 -85 72 -92 191 -274 337 -469 378 -146 31 -329 4 -415 -62 -47 -36 -92 -100 -106 -151 -6 -24 -14 -43 -17 -43 -4 0 -17 12 -31 26 -36 39 -138 118 -196 152 -187 110 -412 122 -508 27 -66 -66 -66 -158 1 -341 19 -52 34 -97 34 -99 0 -2 -28 9 -62 24 -35 16 -76 32 -93 36 -26 6 -36 20 -74 98 -37 75 -59 106 -125 172 -89 88 -169 134 -279 160 -77 18 -205 18 -274 0z m3372 -344 c26 -15 37 -37 84 -171 50 -145 52 -154 35 -167 -10 -7 -33 -13 -52 -13 -93 0 -186 123 -199 264 -5 60 -4 66 21 91 30 30 55 29 111 -4z m-2985 4 c45 -23 101 -105 72 -105 -5 0 -27 -16 -50 -36 -68 -58 -78 -143 -26 -219 20 -31 21 -35 6 -35 -26 0 -77 35 -106 72 -83 109 -97 264 -29 317 31 25 91 28 133 6z"/>
 <path d="M2100 3327 c-19 -6 -55 -32 -81 -57 -194 -194 60 -556 335 -476 107 31 176 136 163 248 -13 110 -92 219 -192 268 -57 28 -167 37 -225 17z"/>
 <path d="M3275 2582 c-22 -11 -97 -76 -166 -145 -143 -143 -153 -148 -275 -127 -104 18 -279 8 -369 -20 -314 -99 -524 -351 -566 -678 -28 -221 50 -463 203 -627 114 -122 228 -192 384 -237 103 -29 296 -32 393 -5 160 44 264 102 371 207 148 146 229 324 238 524 3 65 -1 143 -8 191 -7 45 -10 95 -6 110 4 17 59 81 135 159 151 155 166 184 159 301 -4 60 -12 90 -41 149 -44 87 -94 136 -184 178 -85 40 -207 49 -268 20z m226 -155 c57 -29 67 -39 96 -96 26 -50 33 -75 33 -121 0 -100 -9 -97 -179 74 -137 137 -151 155 -135 165 39 22 118 13 185 -22z m-59 -463 l-67 -71 -156 154 -155 154 70 69 71 69 152 -151 152 -152 -67 -72z m-596 205 c53 -11 66 -18 127 -78 37 -36 67 -68 67 -71 0 -3 -98 -26 -217 -50 -234 -49 -263 -61 -263 -111 0 -32 30 -69 58 -69 9 0 106 18 215 41 109 23 201 38 204 35 3 -3 -13 -93 -35 -199 -23 -106 -42 -203 -42 -216 0 -52 43 -81 93 -62 31 12 35 25 88 276 23 110 44 202 46 204 2 3 34 -26 72 -63 66 -65 69 -70 82 -139 29 -158 10 -308 -59 -447 -49 -101 -177 -231 -279 -283 -327 -169 -726 -48 -892 272 -51 98 -70 166 -78 271 -8 116 15 229 70 340 79 161 254 303 424 344 71 18 239 20 319 5z"/>
 </g>

</svg>