<?xml version="1.0" standalone="no"?>
<!DOCTYPE svg PUBLIC "-//W3C//DTD SVG 20010904//EN"
 "http://www.w3.org/TR/2001/REC-SVG-20010904/DTD/svg10.dtd">
<svg version="1.0" xmlns="http://www.w3.org/2000/svg"
 width="119.000000pt" height="119.000000pt" viewBox="0 0 119.000000 119.000000"
 preserveAspectRatio="xMidYMid meet">
<metadata>
Created by potrace 1.11, written by Peter Selinger 2001-2013
</metadata>
<g transform="translate(0.000000,119.000000) scale(0.100000,-0.100000)"
fill="#000000" stroke="none">
<path d="M0 595 l0 -595 595 0 595 0 0 595 0 595 -595 0 -595 0 0 -595z m664
420 c57 -27 89 -83 94 -164 4 -58 9 -71 38 -104 38 -42 41 -55 19 -97 -31 -60
-89 -67 -140 -16 -31 31 -39 34 -93 34 -91 0 -155 45 -182 128 -29 86 10 177
95 220 57 29 106 29 169 -1z m-153 -465 c26 -15 26 -73 -1 -100 -28 -28 -76
-26 -96 5 -19 29 -12 57 23 85 29 22 45 25 74 10z m-232 -150 c10 -5 24 -23
31 -40 7 -16 15 -30 19 -30 15 1 41 29 50 53 9 24 16 27 59 27 27 0 51 -3 54
-6 4 -3 -4 -37 -17 -75 -17 -50 -20 -69 -11 -69 22 0 53 43 71 98 l17 52 54 0
c30 0 54 -4 54 -8 0 -4 -9 -32 -19 -62 -26 -74 -13 -98 40 -69 19 10 19 10 -1
37 -34 43 -11 102 41 102 30 0 49 -23 49 -59 0 -28 11 -26 41 5 46 50 118 70
148 41 11 -9 14 -9 18 1 3 7 25 12 59 12 30 0 54 -2 54 -3 0 -2 -9 -30 -20
-62 -31 -91 -25 -107 24 -58 20 19 30 23 38 15 17 -17 -33 -76 -85 -101 -51
-25 -90 -27 -111 -6 -13 14 -19 13 -49 -1 -61 -29 -107 2 -107 71 0 35 -13 31
-41 -11 -50 -74 -148 -97 -198 -46 l-28 28 -34 -23 c-89 -61 -170 -31 -139 51
18 47 4 42 -54 -20 -54 -58 -55 -59 -110 -59 -63 0 -90 19 -100 70 -9 43 29
113 74 137 38 20 101 24 129 8z"/>
<path d="M543 999 c-50 -10 -83 -36 -104 -82 -25 -55 -24 -85 4 -137 27 -52
75 -80 137 -80 72 0 96 34 33 46 -49 9 -75 22 -67 35 5 9 38 6 88 -8 17 -5 18
-1 12 51 -6 46 -5 56 8 56 10 0 18 -18 26 -57 l12 -57 19 23 c37 45 15 142
-42 183 -33 25 -86 36 -126 27z"/>
<path d="M697 732 c-30 -31 -33 -44 -14 -61 10 -8 21 -3 47 24 28 29 31 37 20
50 -17 21 -22 19 -53 -13z"/>
<path d="M747 667 c-31 -34 -21 -48 17 -24 25 17 42 57 23 57 -7 -1 -25 -15
-40 -33z"/>
<path d="M200 331 c-24 -46 1 -89 35 -61 14 11 14 15 -1 31 -9 10 -14 25 -11
34 9 22 -10 19 -23 -4z"/>
<path d="M917 332 c-23 -25 -26 -65 -6 -69 17 -4 39 35 39 67 0 25 -12 25 -33
2z"/>
</g>
</svg>
